<svg xmlns="http://www.w3.org/2000/svg" xmlns:xlink="http://www.w3.org/1999/xlink" width="1000" zoomAndPan="magnify" viewBox="0 0 750 749.999995" height="1000" preserveAspectRatio="xMidYMid meet" version="1.0"><defs><clipPath id="15a3830181"><path d="M 14.289062 23.460938 L 691.640625 23.460938 L 691.640625 485 L 14.289062 485 Z M 14.289062 23.460938 " clip-rule="nonzero"/></clipPath><clipPath id="d3db5cd973"><path d="M 319.800781 216.832031 C 350.332031 186.300781 399.855469 186.300781 430.417969 216.832031 L 543.070312 329.542969 C 551.722656 338.109375 551.722656 338.109375 567.617188 355.523438 L 691.128906 241.894531 C 682.933594 230.125 673.742188 219.066406 663.628906 208.898438 L 550.976562 96.332031 C 453.847656 -0.796875 296.371094 -0.796875 199.242188 96.332031 L 86.585938 208.984375 C 42.390625 253.210938 16.554688 312.53125 14.320312 375 C 15.78125 413.324219 26.035156 450.820312 44.3125 484.53125 L 315.53125 221.042969 Z M 319.800781 216.832031 " clip-rule="nonzero"/></clipPath><clipPath id="4fa68dc295"><path d="M 66 278 L 736 278 L 736 726.535156 L 66 726.535156 Z M 66 278 " clip-rule="nonzero"/></clipPath><clipPath id="cad80440ec"><path d="M 374.277344 589.019531 L 349.675781 562.269531 C 338.644531 551.699219 326.617188 539.984375 319.800781 533.167969 L 206.859375 420.515625 C 200.214844 413.867188 198.125 411.835938 187.496094 400.863281 L 66.996094 518.902344 C 73.011719 526.664062 79.484375 534.027344 86.359375 541.015625 L 199.011719 653.667969 C 296.140625 750.796875 453.621094 750.796875 550.746094 653.667969 L 663.402344 541.015625 C 707.597656 496.789062 733.402344 437.472656 735.667969 375 C 734.320312 341.546875 726.273438 308.691406 711.980469 278.417969 Z M 374.277344 589.019531 " clip-rule="nonzero"/></clipPath></defs><g clip-path="url(#15a3830181)"><g clip-path="url(#d3db5cd973)"><path fill="white" d="M 0 9.171875 L 748.800781 9.171875 L 748.800781 740.824219 L 0 740.824219 Z M 0 9.171875 " fill-opacity="1" fill-rule="nonzero"/></g></g><g clip-path="url(#4fa68dc295)"><g clip-path="url(#cad80440ec)"><path fill="white" d="M 0 9.171875 L 748.800781 9.171875 L 748.800781 740.824219 L 0 740.824219 Z M 0 9.171875 " fill-opacity="1" fill-rule="nonzero"/></g></g></svg>